<svg xmlns="http://www.w3.org/2000/svg" viewBox="0 0 3000 3000"><defs><style>.cls-1{fill:#181716;}.cls-2{fill:#fff;}</style></defs><g id="Слой_2" data-name="Слой 2"><g id="_3" data-name="3"><rect class="cls-1" width="3000" height="3000"/><polygon class="cls-2" points="945.12 1501.25 889.66 1377.12 836.74 1377.12 836.74 1575.59 891.63 1575.59 891.63 1498.72 927.95 1575.59 961.45 1575.59 998.61 1496.93 998.61 1575.59 1053.5 1575.59 1053.5 1377.12 1000.58 1377.12 945.12 1501.25"/><polygon class="cls-2" points="1136.56 1481.92 1136.56 1429.25 1107.76 1429.25 1107.76 1530.74 1130.36 1530.74 1173.26 1478.07 1173.26 1530.74 1202.06 1530.74 1202.06 1429.25 1179.45 1429.25 1136.56 1481.92"/><path class="cls-2" d="M1330.52,1415.68c2.39-.55,7.1,1.58,10,3.28s7.51,1.54,6.37-3.57C1345.2,1407.57,1333.72,1409.74,1330.52,1415.68Z"/><path class="cls-2" d="M2322.6,1377.12H2220.13v198.47h60.81v-70.66h41.66q35.19,0,52.93-17.46t17.73-46.45q0-29.26-17.73-46.59T2322.6,1377.12Zm7.6,77c-3.38,3.1-49.26,28.17-49.26,28.17v-59h33.5q10.7,0,15.76,4.64t5.07,13.09Q2335.27,1449.47,2330.2,1454.11Z"/><path class="cls-2" d="M745.53,1386.55q-23.09-12.81-54.9-12.81-31.53,0-54.61,12.81a88.65,88.65,0,0,0-35.61,35.89q-12.54,23.08-12.53,53.77,0,30.4,12.53,53.63A89.36,89.36,0,0,0,636,1566Q659.11,1579,690.63,1579q31.82,0,54.9-12.94a90.61,90.61,0,0,0,35.75-36q12.66-23.07,12.67-53.77t-12.67-53.77A89.67,89.67,0,0,0,745.53,1386.55Zm-54.62,146.73c-30.16,0-54.61-21.16-54.61-47.27,0-14.84.65-29.19,13.3-75.68,6.38,12.47,12.79,19.46,19.11,23.39-8.48,4.09-12.86,11.51-13.81,15.48,4.26-3.74,22.07-10.33,36-10.46a63.07,63.07,0,0,1,11.85,1.13c5.92-4.64,19.32-15.82,25.75-26.61,2.81,8.37,1.32,18.86-.77,27-5.76-.48-11.66,0-15.59,2.07,4.22,2,14.47,6.9,21.84,14.63a43.19,43.19,0,0,1,11.54,29C745.53,1512.12,721.08,1533.28,690.91,1533.28Z"/><polygon class="cls-2" points="391.67 1426.1 449.1 1426.1 449.1 1575.59 509.9 1575.59 509.9 1426.1 567.33 1426.1 567.33 1377.12 391.67 1377.12 391.67 1426.1"/><polygon class="cls-2" points="2564.14 1377.12 2480.24 1480.11 2480.24 1377.12 2423.94 1377.12 2423.94 1575.59 2468.14 1575.59 2552.03 1472.59 2552.03 1575.59 2608.33 1575.59 2608.33 1377.12 2564.14 1377.12"/><path class="cls-2" d="M1435.57,1377.12h-159.9v53.21q0,35.46-5.77,60.52T1252.58,1530h-20.83v96.28h51.8v-50.67h129.22v50.67h51.79V1530h-29Zm-63.24,87.11c4.43-.62,9-2.88,10.66-4.87.87,2.78-7.79,35.48,9.12,70.7h-78.25c-5.55-24,22.38-60.59,21-74.47s-22.6-16.83-30.53-22.56c-5.86-4.23-11.11-16.66-8-20.82s16.59,0,22.67-2.08,14-11.68,24.72-11.73c23.22-.1,28.61,6.7,40.58,18.15,4,3.79,4.86,5.39,7.81,10.28-2.08,10.53-13.67,18-18.48,19.49-6.87-3.08-14.23-8-15.7-23.7C1356.54,1430.08,1353.26,1453,1372.33,1464.23Z"/><path class="cls-2" d="M2113.16,1377.12H2010.69v198.47h60.81v-70.66h41.66q35.19,0,52.92-17.46t17.74-46.45q0-29.26-17.74-46.59T2113.16,1377.12Zm7.6,77c-3.38,3.1-49.26,28.17-49.26,28.17v-59H2105q10.7,0,15.76,4.64t5.07,13.09Q2125.83,1449.47,2120.76,1454.11Z"/><polygon class="cls-2" points="1825.46 1575.59 1972.69 1575.59 1972.69 1529.42 1883.45 1529.42 1883.45 1497.89 1965.93 1497.89 1965.93 1451.72 1883.45 1451.72 1883.45 1423.29 1972.69 1423.29 1972.69 1377.12 1825.46 1377.12 1825.46 1575.59"/><path class="cls-2" d="M1743.26,1471.29a64.43,64.43,0,0,0-7.45-5l57.56-89.12h-65.6L1682,1454h-10.23v-76.85H1614V1454h-10l-46.32-76.85h-65.59l57.85,89.16a63.76,63.76,0,0,0-7.32,5q-13.65,10.83-23.51,30.54l-36.87,73.76h65l25.89-54.9q4.79-9.86,11.83-14.07t19.14-4.23H1614v73.2h57.71v-73.2h9.86q12.38,0,19.42,4.23t11.54,14.07l25.62,54.9h65l-36.6-73.76Q1757.05,1482.14,1743.26,1471.29Z"/><path class="cls-2" d="M678.57,1476.2c-7.81-.84-11.53,11.1-11.53,11.1s3.13-.91,10.18-.91a23.94,23.94,0,0,1,11.26,2.46C685.12,1478,682.69,1476.64,678.57,1476.2Z"/><path class="cls-2" d="M722,1476.63c-7.82.77-8.46,13.5-8.46,13.5s2.7-2.68,9.63-4a22.31,22.31,0,0,1,11.63.86C729.15,1477.14,726.74,1476.15,722,1476.63Z"/><path class="cls-2" d="M709.84,1499H698.07a2.31,2.31,0,0,0-1.68,3.9l8,8.44,7.24-8.54A2.31,2.31,0,0,0,709.84,1499Z"/></g></g></svg>