<svg xmlns="http://www.w3.org/2000/svg" viewBox="0 0 2216.67 252.52"><defs><style>.cls-1{fill:#fff;}</style></defs><g id="Слой_2" data-name="Слой 2"><g id="_3" data-name="3"><polygon class="cls-1" points="553.45 127.51 497.99 3.38 445.07 3.38 445.07 201.84 499.96 201.84 499.96 124.98 536.28 201.84 569.78 201.84 606.94 123.19 606.94 201.84 661.84 201.84 661.84 3.38 608.91 3.38 553.45 127.51"/><polygon class="cls-1" points="744.89 108.18 744.89 55.51 716.09 55.51 716.09 157 738.7 157 781.6 104.33 781.6 157 810.39 157 810.39 55.51 787.79 55.51 744.89 108.18"/><path class="cls-1" d="M938.85,41.94c2.39-.55,7.1,1.58,10,3.28s7.5,1.54,6.37-3.57C953.53,33.83,942.06,36,938.85,41.94Z"/><path class="cls-1" d="M1930.93,3.38H1828.46V201.85h60.81V131.18h41.66q35.19,0,52.93-17.45t17.73-46.45q0-29.26-17.73-46.59T1930.93,3.38Zm7.61,77c-3.38,3.1-49.27,28.16-49.27,28.16v-59h33.5q10.7,0,15.77,4.64t5.06,13.09Q1943.6,75.72,1938.54,80.37Z"/><path class="cls-1" d="M353.86,12.81Q330.78,0,299,0q-31.55,0-54.62,12.81A88.65,88.65,0,0,0,208.74,48.7q-12.53,23.08-12.53,53.77,0,30.41,12.53,53.63a89.27,89.27,0,0,0,35.61,36.17q23.09,13,54.62,12.95,31.8,0,54.89-12.95a90.39,90.39,0,0,0,35.75-36q12.67-23.09,12.67-53.77T389.61,48.7A89.55,89.55,0,0,0,353.86,12.81ZM299.25,159.54c-30.16,0-54.62-21.16-54.62-47.27,0-14.84.65-29.19,13.31-75.68C264.32,49.06,270.73,56.05,277,60c-8.48,4.09-12.86,11.51-13.81,15.48,4.26-3.74,22.07-10.33,36-10.46a62.89,62.89,0,0,1,11.84,1.13c5.92-4.64,19.32-15.82,25.75-26.61,2.82,8.37,1.32,18.86-.77,27-5.76-.48-11.66,0-15.58,2.07,4.22,2,14.46,6.9,21.84,14.63a43.21,43.21,0,0,1,11.53,29C353.86,138.38,329.41,159.54,299.25,159.54Z"/><polygon class="cls-1" points="0 52.36 57.43 52.36 57.43 201.84 118.23 201.84 118.23 52.36 175.66 52.36 175.66 3.38 0 3.38 0 52.36"/><polygon class="cls-1" points="2172.47 3.38 2088.58 106.37 2088.58 3.38 2032.28 3.38 2032.28 201.84 2076.47 201.84 2160.36 98.85 2160.36 201.84 2216.67 201.84 2216.67 3.38 2172.47 3.38"/><path class="cls-1" d="M1043.9,3.38H884v53.2q0,35.48-5.77,60.53t-17.31,39.13H840.09v96.28h51.79V201.85H1021.1v50.67h51.8V156.24h-29ZM980.66,90.49c4.43-.62,9-2.88,10.67-4.87.87,2.78-7.8,35.48,9.11,70.7H922.19c-5.55-23.95,22.38-60.59,21-74.47S920.58,65,912.65,59.29c-5.86-4.23-11.1-16.66-8-20.82s16.59,0,22.66-2.08,13.95-11.68,24.72-11.73c23.22-.1,28.61,6.7,40.58,18.15,4,3.79,4.86,5.39,7.81,10.28-2.07,10.53-13.67,18-18.48,19.49-6.87-3.08-14.22-8-15.7-23.7C964.87,56.34,961.59,79.29,980.66,90.49Z"/><path class="cls-1" d="M1721.49,3.38H1619V201.85h60.81V131.18h41.66q35.19,0,52.93-17.45t17.73-46.45q0-29.26-17.73-46.59T1721.49,3.38Zm7.6,77c-3.37,3.1-49.26,28.16-49.26,28.16v-59h33.5q10.7,0,15.76,4.64t5.07,13.09Q1734.16,75.72,1729.09,80.37Z"/><polygon class="cls-1" points="1433.79 201.84 1581.02 201.84 1581.02 155.68 1491.78 155.68 1491.78 124.15 1574.27 124.15 1574.27 77.98 1491.78 77.98 1491.78 49.55 1581.02 49.55 1581.02 3.38 1433.79 3.38 1433.79 201.84"/><path class="cls-1" d="M1351.59,97.54a64.77,64.77,0,0,0-7.45-5L1401.7,3.38h-65.59l-45.8,76.85h-10.22V3.38h-57.71V80.23h-10L1166.07,3.38h-65.59l57.85,89.16a65,65,0,0,0-7.32,5q-13.65,10.84-23.5,30.55l-36.88,73.76h65l25.9-54.9q4.79-9.85,11.82-14.08t19.14-4.22h9.86v73.2h57.71v-73.2h9.85q12.39,0,19.43,4.22T1320.91,147l25.61,54.9h65L1375,128.09Q1365.38,108.38,1351.59,97.54Z"/><path class="cls-1" d="M286.91,102.45c-7.82-.83-11.54,11.11-11.54,11.11s3.13-.91,10.19-.91a23.87,23.87,0,0,1,11.25,2.46C293.45,104.26,291,102.9,286.91,102.45Z"/><path class="cls-1" d="M330.3,102.89c-7.82.77-8.46,13.5-8.46,13.5s2.7-2.68,9.63-4a22.35,22.35,0,0,1,11.63.87C337.48,103.4,335.07,102.41,330.3,102.89Z"/><path class="cls-1" d="M318.17,125.25H306.4a2.31,2.31,0,0,0-1.68,3.89l8,8.45,7.24-8.54A2.3,2.3,0,0,0,318.17,125.25Z"/></g></g></svg>